<svg id="Gradient" height="512" viewBox="0 0 512 512" width="512" xmlns="http://www.w3.org/2000/svg" xmlns:xlink="http://www.w3.org/1999/xlink"><linearGradient id="linear-gradient" gradientUnits="userSpaceOnUse" x1="256.642" x2="256.642" y1="496.731" y2="15.793"><stop offset="0" stop-color="#27c1e6"/><stop offset=".5" stop-color="#c275e9"/><stop offset="1" stop-color="#f2515d"/></linearGradient><path d="m493.05 217.177c-3.018-4.187-9.119-9.177-21.05-9.177-15.371 0-26.484 13.79-33.117 41.011a23.9 23.9 0 0 0 -6.883-1.011c-.337 0-.67.012-1 .025-4.552-55.785-28-231.496-142.483-232.025a41.281 41.281 0 0 0 -32.09 10.728c-13.794 12.919-19.39 35.548-16.647 67.287l-27.5 43.219a72.049 72.049 0 0 0 14.208 93.6c1.684 1.431 3.449 2.9 5.276 4.4-51.177-2.39-89.432 7-113.929 28.031a39.854 39.854 0 0 0 -13.8 26.4c-.513 5.2-.263 11.508 0 18.189 1.175 29.67-.011 52.961-26.237 60.454l-44.407 12.683a24.124 24.124 0 0 0 -17.391 23.079v3.25a24 24 0 0 0 33.133 22.2c42.672-17.548 73.959-21.451 79.712-9.941l1.342 2.692c8.594 17.258 20.364 40.9 39.127 57.062 13.458 11.6 28.314 17.4 44.426 17.4q17.862 0 37.724-9.52c32.417-15.573 72.851-61 90.138-81.589a23.743 23.743 0 0 0 10.346 2.376 24.366 24.366 0 0 0 3.87-.311 23.837 23.837 0 0 0 15.637-9.637l14.719-20.377 5.826 8.746v21.579a8 8 0 0 0 16 0v-24a8 8 0 0 0 -1.343-4.437l-10.482-15.73 23.28-32.228 4.545 6.817v21.578a8 8 0 0 0 16 0v-24a8 8 0 0 0 -1.344-4.438l-9.2-13.8 12.265-16.979a23.8 23.8 0 0 0 4.029-9.128 23.948 23.948 0 0 0 7.084-31.546c4.411-22.677 11.498-36.109 19.166-36.109 2.838 0 6.54.436 8.055 2.512 2.029 2.779 1.106 8.612.355 10.958a8 8 0 1 0 15.18 5.06c.51-1.53 4.764-15.219-2.54-25.353zm-126.256-137.547q13.731 20.79 24.288 50.555c15.643 44.195 21.587 91.935 23.739 116.515-10.476-29.484-27.919-64.448-52.079-104.337-10.841-17.887-21.181-33.647-28.989-45.184a179.1 179.1 0 0 1 33.041-17.549zm-60.339 139.412a196.9 196.9 0 0 1 -25.155-70.557 212.648 212.648 0 0 1 39.544-41.836c7.189 10.635 16.5 24.82 26.318 40.892-10.253 33.074-16.179 91.836 42.26 143.675l-4.885 6.763c-33.879-21.937-60.131-48.463-78.082-78.937zm30.8 62.69c-41.818-19.4-72.747-40.553-93.962-57.746a298.586 298.586 0 0 1 25.43-56.258 215.361 215.361 0 0 0 23.944 59.435 237.932 237.932 0 0 0 44.59 54.569zm21.092-71.685a116.581 116.581 0 0 1 .416-42.978c23.087 40 39.027 75.124 46.562 102.677a24.131 24.131 0 0 0 -2.512 2.93l-3.971 5.5c-22.213-20.091-35.827-42.976-40.493-68.129zm-127.89 2.185a56.314 56.314 0 0 1 -4.679-66.407l28.97-45.53a8 8 0 0 0 1.21-5.091c-2.741-27.414 1.14-46.995 11.224-56.626a24.9 24.9 0 0 1 19.5-6.686 8.045 8.045 0 0 0 1.318.108c26.776 0 49.832 11.53 68.975 34.382-37.024 15.832-93.52 54.239-126.516 145.85zm14.078 260.556c-25.194 12.1-46.383 10.273-64.779-5.577-16.321-14.063-27.261-36.032-35.249-52.073l-1.353-2.714c-10.694-21.4-44.376-20.624-100.106 2.3a8 8 0 0 1 -11.048-7.404v-3.25a8.051 8.051 0 0 1 5.8-7.7l44.4-12.68c17.8-5.086 29.49-16.535 34.735-34.028 4.22-14.075 3.6-29.805 3.1-42.442a132.744 132.744 0 0 1 -.067-15.986 23.927 23.927 0 0 1 8.3-15.837c9.77-8.389 22.306-14.628 37.511-18.724-5.078 23.929-8.124 56.421-.643 92.04 10.112 48.148 36.816 89.832 79.42 124.066zm88.007-102.842a24.024 24.024 0 0 0 -2.251 24.262c-21.065 25.265-48.236 53.637-71.1 69.74-42.351-32.559-68.722-72.408-78.408-118.522-7.674-36.534-3.368-69.614 2.212-92.308q30.606-4.589 72.438.056c28.281 19.9 67.111 42.147 117.639 60.666zm25.939 18.741a8.006 8.006 0 0 1 -11.165 1.8 8.019 8.019 0 0 1 -1.8-11.174l67.21-93.033a24.066 24.066 0 0 0 13.262 8.956zm73.519-108.687a8 8 0 1 1 8-8 8.009 8.009 0 0 1 -8 8zm-176 8a56 56 0 1 0 56 56 56.063 56.063 0 0 0 -56-56zm0 96a40 40 0 1 1 40-40 40.045 40.045 0 0 1 -40 40zm0-64a24 24 0 1 0 24 24 24.028 24.028 0 0 0 -24-24zm0 32a8 8 0 1 1 8-8 8.009 8.009 0 0 1 -8 8z" fill="url(#linear-gradient)"/></svg>